<svg width="16" height="16" viewBox="0 0 16 16" fill="none" xmlns="http://www.w3.org/2000/svg">
    <g id="Linear / Shopping, Ecommerce / Cart Plus">
        <path id="Vector" d="M5 12C5.55229 12 6 12.4477 6 13C6 13.5523 5.55229 14 5 14C4.44771 14 4 13.5523 4 13C4 12.4477 4.44771 12 5 12Z" stroke="white"/>
        <path id="Vector_2" d="M11 12C11.5523 12 12 12.4477 12 13C12 13.5523 11.5523 14 11 14C10.4477 14 10 13.5523 10 13C10 12.4477 10.4477 12 11 12Z" stroke="white"/>
        <path id="Vector_3" d="M1.49923 1.5282C1.23871 1.4366 0.95328 1.57354 0.861693 1.83405C0.7701 2.09456 0.90704 2.38 1.16755 2.47158L1.49923 1.5282ZM13.7719 6.58839L14.2616 6.68936L14.2623 6.68629L13.7719 6.58839ZM3.80544 6.50656V4.69213H2.80544V6.50656H3.80544ZM1.67337 1.58942L1.49923 1.5282L1.16755 2.47158L1.34169 2.53281L1.67337 1.58942ZM7.29172 10.8332H10.827V9.83322H7.29172V10.8332ZM3.80544 4.69213C3.80544 4.22069 3.80612 3.82729 3.77151 3.5076C3.73569 3.17668 3.65809 2.87487 3.4701 2.59978L2.64446 3.16398C2.70463 3.25204 2.7511 3.37298 2.77732 3.61522C2.80476 3.86869 2.80544 4.19883 2.80544 4.69213H3.80544ZM1.34169 2.53281C1.78676 2.68929 2.07926 2.79299 2.29449 2.8986C2.49664 2.99778 2.58575 3.07807 2.64446 3.16398L3.4701 2.59978C3.28065 2.32254 3.02875 2.14498 2.73499 2.00084C2.45431 1.86312 2.09602 1.73802 1.67337 1.58942L1.34169 2.53281ZM2.80544 6.50656C2.80544 7.47489 2.81453 8.17316 2.90589 8.70662C3.00344 9.27616 3.1982 9.68396 3.56235 10.068L4.28804 9.38002C4.0746 9.15489 3.95947 8.93442 3.89154 8.53782C3.81743 8.10509 3.80544 7.49922 3.80544 6.50656H2.80544ZM7.29172 9.83322C6.34718 9.83322 5.69181 9.83202 5.19803 9.76202C4.72149 9.69442 4.46973 9.57162 4.28804 9.38002L3.56235 10.068C3.95826 10.4856 4.46013 10.6674 5.05763 10.7521C5.63788 10.8344 6.37695 10.8332 7.29172 10.8332V9.83322ZM3.30544 4.57989H11.3926V3.57989H3.30544V4.57989ZM13.2822 6.48746L12.9491 8.10396L13.9285 8.30582L14.2616 6.68936L13.2822 6.48746ZM11.3926 4.57989C11.9635 4.57989 12.466 4.58056 12.8625 4.62488C13.0596 4.64691 13.2071 4.67751 13.3107 4.71392C13.4183 4.75173 13.4354 4.78074 13.4268 4.76948L14.2194 4.15974C14.0627 3.95613 13.8425 3.84086 13.6422 3.77047C13.4379 3.69868 13.2068 3.65714 12.9737 3.63108C12.5098 3.57922 11.945 3.57989 11.3926 3.57989V4.57989ZM14.2623 6.68629C14.3751 6.121 14.4709 5.64672 14.4943 5.26681C14.5184 4.87601 14.4739 4.49067 14.2194 4.15974L13.4268 4.76948C13.4681 4.82328 13.5138 4.92014 13.4962 5.2052C13.4779 5.50116 13.4002 5.89641 13.2816 6.49052L14.2623 6.68629ZM10.827 10.8332C11.3348 10.8332 11.7609 10.8341 12.1045 10.792C12.4616 10.7484 12.7873 10.6528 13.0717 10.4211L12.4399 9.64589C12.3565 9.71389 12.2381 9.76822 11.983 9.79949C11.7142 9.83236 11.3599 9.83322 10.827 9.83322V10.8332ZM12.9491 8.10396C12.8415 8.62582 12.7691 8.97276 12.6826 9.22936C12.6005 9.47289 12.5234 9.57789 12.4399 9.64589L13.0717 10.4211C13.356 10.1894 13.5153 9.88962 13.6303 9.54869C13.7408 9.22069 13.8259 8.80316 13.9285 8.30582L12.9491 8.10396Z" fill="white"/>
        <path id="Vector_4" d="M8.66671 8.66667V7.33333M8.66671 7.33333V6M8.66671 7.33333H10M8.66671 7.33333H7.33337" stroke="white" stroke-linecap="round"/>
    </g>
</svg>
