<svg width="24" height="24" viewBox="0 0 24 24" fill="none" xmlns="http://www.w3.org/2000/svg">
<path d="M2 3L2.26491 3.0883C3.58495 3.52832 4.24497 3.74832 4.62248 4.2721C5 4.79587 5 5.49159 5 6.88304V9.5C5 12.3284 5 13.7426 5.87868 14.6213C6.75736 15.5 8.17157 15.5 11 15.5H19" stroke="#178047" stroke-width="1.5" stroke-linecap="round"/>
<path d="M7.5 18C8.32843 18 9 18.6716 9 19.5C9 20.3284 8.32843 21 7.5 21C6.67157 21 6 20.3284 6 19.5C6 18.6716 6.67157 18 7.5 18Z" stroke="#178047" stroke-width="1.5"/>
<path d="M16.5 18.0001C17.3284 18.0001 18 18.6716 18 19.5001C18 20.3285 17.3284 21.0001 16.5 21.0001C15.6716 21.0001 15 20.3285 15 19.5001C15 18.6716 15.6716 18.0001 16.5 18.0001Z" stroke="#178047" stroke-width="1.5"/>
<path d="M5.6012 6.15356H17.0516C19.1066 6.15356 20.134 6.15356 20.5787 6.82782C21.0233 7.50209 20.6185 8.4465 19.809 10.3354L19.3804 11.3354C19.0025 12.2172 18.8135 12.6581 18.4378 12.9059C18.0621 13.1536 17.5824 13.1536 16.623 13.1536H5.6012" fill="#178047"/>
<path d="M5.6012 6.15356H17.0516C19.1066 6.15356 20.134 6.15356 20.5787 6.82782C21.0233 7.50209 20.6185 8.4465 19.809 10.3354L19.3804 11.3354C19.0025 12.2172 18.8135 12.6581 18.4378 12.9059C18.0621 13.1536 17.5824 13.1536 16.623 13.1536H5.6012" stroke="#178047" stroke-width="1.5"/>
<path d="M11 9H8" stroke="white" stroke-width="1.5" stroke-linecap="round"/>
</svg>
