<svg width="24" height="24" viewBox="0 0 24 24" fill="none" xmlns="http://www.w3.org/2000/svg">
<path d="M19.028 3.14444H16.8568V2.1731C16.8568 1.85884 16.514 1.71601 16.1997 1.71601H14.5142C14.1142 0.573235 13.1143 0.00184981 11.9715 0.00184981C10.8413 -0.0406391 9.8133 0.652362 9.42883 1.71601H7.77181C7.45755 1.71601 7.14328 1.85884 7.14328 2.1731V3.14444H4.97197C3.68528 3.15817 2.63262 4.1732 2.57214 5.45853V21.8287C2.57214 23.0857 3.71491 23.9999 4.97197 23.9999H19.028C20.2851 23.9999 21.4279 23.0857 21.4279 21.8287V5.45858C21.3674 4.1732 20.3147 3.15817 19.028 3.14444ZM8.286 2.85878H9.85732C9.99094 2.84247 10.1158 2.78371 10.2135 2.69114C10.3112 2.59857 10.3767 2.47707 10.4002 2.34454C10.5694 1.60773 11.2158 1.07884 11.9715 1.05893C12.7202 1.08163 13.3569 1.61216 13.5142 2.34454C13.5391 2.4814 13.6087 2.60613 13.7121 2.69919C13.8155 2.79225 13.9469 2.84838 14.0856 2.85878H15.7141V5.14432H8.286V2.85878ZM20.2851 21.8287C20.2851 22.4573 19.6566 22.8572 19.028 22.8572H4.97197C4.34344 22.8572 3.71491 22.4573 3.71491 21.8287V5.45858C3.77321 4.80435 4.31523 4.29924 4.97197 4.28727H7.14323V5.74431C7.17341 6.06442 7.45066 6.30388 7.77176 6.28715H16.1997C16.3574 6.29577 16.5125 6.24471 16.6343 6.14413C16.756 6.04354 16.8354 5.9008 16.8567 5.74431V4.28721H19.028C19.6847 4.29924 20.2268 4.8043 20.285 5.45853V21.8287H20.2851Z" fill="#212121" fill-opacity="0.4"/>
<path d="M9.80016 12.7723C9.58586 12.5464 9.23009 12.5337 9.0002 12.7437L7.17176 14.4864L6.40039 13.6865C6.18609 13.4606 5.83032 13.4479 5.60043 13.6579C5.49389 13.7695 5.43445 13.9179 5.43445 14.0722C5.43445 14.2265 5.49389 14.3748 5.60043 14.4864L6.77175 15.6864C6.82183 15.7424 6.88359 15.7869 6.95269 15.8165C7.0218 15.8461 7.09656 15.8602 7.1717 15.8578C7.32241 15.8557 7.46618 15.794 7.57165 15.6864L9.80005 13.5723C10.021 13.3696 10.0357 13.0262 9.83303 12.8053C9.82261 12.7938 9.81164 12.7828 9.80016 12.7723ZM17.9995 14.0008H11.4286C11.1131 14.0008 10.8572 14.2566 10.8572 14.5721C10.8572 14.8877 11.1131 15.1435 11.4286 15.1435H17.9995C18.3151 15.1435 18.5709 14.8877 18.5709 14.5721C18.5709 14.2566 18.3151 14.0008 17.9995 14.0008ZM9.80016 8.20121C9.58586 7.97531 9.23009 7.96257 9.0002 8.17266L7.17176 9.91536L6.40039 9.1154C6.18609 8.8895 5.83032 8.87676 5.60043 9.08686C5.49389 9.19846 5.43445 9.34682 5.43445 9.50111C5.43445 9.6554 5.49389 9.80376 5.60043 9.91536L6.77175 11.1153C6.82183 11.1714 6.88359 11.2158 6.95269 11.2454C7.0218 11.275 7.09656 11.2891 7.1717 11.2867C7.32241 11.2846 7.46618 11.223 7.57165 11.1153L9.80005 9.00117C10.021 8.79851 10.0357 8.4551 9.83303 8.23423C9.82261 8.2227 9.81164 8.21168 9.80016 8.20121ZM17.9995 9.42967H11.4286C11.1131 9.42967 10.8572 9.68547 10.8572 10.0011C10.8572 10.3166 11.1131 10.5724 11.4286 10.5724H17.9995C18.3151 10.5724 18.5709 10.3166 18.5709 10.0011C18.5709 9.68547 18.3151 9.42967 17.9995 9.42967ZM9.80016 17.3433C9.58586 17.1174 9.23009 17.1047 9.0002 17.3148L7.17176 19.0575L6.40039 18.2575C6.18609 18.0316 5.83032 18.0189 5.60043 18.229C5.49389 18.3406 5.43445 18.4889 5.43445 18.6432C5.43445 18.7975 5.49389 18.9459 5.60043 19.0575L6.77175 20.2574C6.82183 20.3135 6.88359 20.3579 6.95269 20.3875C7.0218 20.4171 7.09656 20.4312 7.1717 20.4288C7.32241 20.4267 7.46618 20.3651 7.57165 20.2574L9.80005 18.1433C10.021 17.9406 10.0357 17.5972 9.83303 17.3764C9.82258 17.3648 9.81162 17.3538 9.80016 17.3433ZM17.9995 18.5718H11.4286C11.1131 18.5718 10.8572 18.8276 10.8572 19.1432C10.8572 19.4588 11.1131 19.7146 11.4286 19.7146H17.9995C18.3151 19.7146 18.5709 19.4588 18.5709 19.1432C18.5709 18.8276 18.3151 18.5718 17.9995 18.5718Z" fill="#212121" fill-opacity="0.4"/>
</svg>
