<svg width="24" height="24" viewBox="0 0 24 24" fill="none" xmlns="http://www.w3.org/2000/svg">
<g clip-path="url(#clip0_501_3297)">
<path d="M16.0049 1.81873H14.2489C14.1422 1.81543 14.0395 1.77761 13.9562 1.71095C13.8728 1.6443 13.8134 1.5524 13.7867 1.44906C13.6203 0.584547 12.849 -0.0299481 11.9691 0.00112748C11.084 -0.0143808 10.3164 0.61008 10.1515 1.4799C10.1239 1.58015 10.0632 1.66813 9.97935 1.72962C9.89549 1.79112 9.79334 1.82253 9.68941 1.81879H7.995V4.89952H16.0049V1.81873Z" fill="#197D47"/>
<path d="M20.9341 22.5826V4.93009C20.936 4.23251 20.372 3.66549 19.6744 3.6636C19.6424 3.66354 19.6105 3.66466 19.5786 3.66696H16.9291V5.23814C16.9291 5.48462 16.7751 5.8235 16.5286 5.8235H7.4405C7.19402 5.8235 7.07083 5.48462 7.07083 5.23814V3.66702H4.42139C3.72569 3.61595 3.12028 4.13858 3.06927 4.83433C3.06691 4.86623 3.06579 4.89819 3.06591 4.93015V22.5827C3.04869 23.3482 3.65529 23.9826 4.42074 23.9998H19.5786C20.3441 23.983 20.951 23.3488 20.9342 22.5834L20.9341 22.5826ZM9.50458 18.5161L7.10161 20.765C7.06361 20.8105 7.01664 20.8477 6.96364 20.8742C6.91064 20.9007 6.85275 20.9159 6.79357 20.9191C6.66482 20.914 6.54319 20.8587 6.45469 20.765L5.19161 19.4711C5.11092 19.3808 5.06893 19.2624 5.07469 19.1414C5.08045 19.0204 5.13349 18.9065 5.22239 18.8242C5.30877 18.7395 5.4249 18.6921 5.54586 18.6921C5.66681 18.6921 5.78295 18.7395 5.86932 18.8242L6.79351 19.81L8.88843 17.8383C8.98052 17.7748 9.09253 17.7468 9.20367 17.7596C9.31481 17.7724 9.41754 17.8251 9.49279 17.9079C9.56805 17.9907 9.61072 18.0979 9.61288 18.2098C9.61505 18.3216 9.57657 18.4305 9.50458 18.5161ZM9.50458 13.5869L7.10161 15.8359C7.06361 15.8813 7.01664 15.9185 6.96364 15.945C6.91064 15.9715 6.85275 15.9868 6.79357 15.9899C6.66482 15.9848 6.54319 15.9295 6.45469 15.8359L5.19161 14.542C5.11092 14.4516 5.06893 14.3332 5.07469 14.2122C5.08045 14.0912 5.13349 13.9773 5.22239 13.895C5.30877 13.8104 5.4249 13.7629 5.54586 13.7629C5.66681 13.7629 5.78295 13.8104 5.86932 13.895L6.79351 14.8808L8.88843 12.9092C8.98052 12.8456 9.09253 12.8177 9.20367 12.8305C9.31481 12.8432 9.41754 12.8959 9.49279 12.9787C9.56805 13.0615 9.61072 13.1687 9.61288 13.2806C9.61505 13.3925 9.57657 13.5013 9.50458 13.5869ZM9.50458 8.65775L7.10161 10.9067C7.06361 10.9522 7.01664 10.9893 6.96364 11.0158C6.91064 11.0423 6.85275 11.0576 6.79357 11.0607C6.66482 11.0556 6.54319 11.0003 6.45469 10.9067L5.19161 9.61278C5.11092 9.52244 5.06893 9.40402 5.07469 9.28303C5.08045 9.16203 5.13349 9.04813 5.22239 8.96586C5.30877 8.88118 5.4249 8.83375 5.54586 8.83375C5.66681 8.83375 5.78295 8.88118 5.86932 8.96586L6.79351 9.95167L8.88843 7.97999C8.98052 7.91646 9.09253 7.8885 9.20367 7.90128C9.31481 7.91407 9.41754 7.96674 9.49279 8.04952C9.56805 8.1323 9.61072 8.23957 9.61288 8.35143C9.61505 8.46328 9.57657 8.57212 9.50458 8.65775ZM18.4695 20.3029H11.3838C11.2612 20.3029 11.1437 20.2542 11.057 20.1676C10.9704 20.0809 10.9217 19.9634 10.9217 19.8408C10.9217 19.7182 10.9704 19.6007 11.057 19.514C11.1437 19.4274 11.2612 19.3787 11.3838 19.3787H18.4695C18.592 19.3787 18.7096 19.4273 18.7962 19.514C18.8829 19.6007 18.9316 19.7182 18.9316 19.8408C18.9316 19.9633 18.8829 20.0809 18.7963 20.1675C18.7096 20.2542 18.5921 20.3029 18.4695 20.3029ZM18.4695 15.3737H11.3838C11.2612 15.3737 11.1437 15.3251 11.057 15.2384C10.9704 15.1517 10.9217 15.0342 10.9217 14.9116C10.9217 14.7891 10.9704 14.6715 11.057 14.5849C11.1437 14.4982 11.2612 14.4495 11.3838 14.4495H18.4695C18.592 14.4495 18.7096 14.4982 18.7962 14.5848C18.8829 14.6715 18.9316 14.789 18.9316 14.9116C18.9316 15.0342 18.8829 15.1517 18.7963 15.2384C18.7096 15.325 18.5921 15.3737 18.4695 15.3737ZM18.4695 10.4446H11.3838C11.2612 10.4446 11.1437 10.3959 11.057 10.3092C10.9704 10.2226 10.9217 10.105 10.9217 9.98245C10.9217 9.85989 10.9704 9.74234 11.057 9.65568C11.1437 9.56901 11.2612 9.52032 11.3838 9.52032H18.4695C18.592 9.52032 18.7096 9.569 18.7962 9.65566C18.8829 9.74232 18.9316 9.85986 18.9316 9.98242C18.9316 10.105 18.8829 10.2225 18.7963 10.3092C18.7096 10.3959 18.5921 10.4446 18.4695 10.4446Z" fill="#197D47"/>
</g>
<defs>
<clipPath id="clip0_501_3297">
<rect width="24" height="24" fill="white"/>
</clipPath>
</defs>
</svg>
